<?xml version="1.0" encoding="utf-8"?>
<!-- Generator: Adobe Illustrator 16.0.0, SVG Export Plug-In . SVG Version: 6.00 Build 0)  -->
<!DOCTYPE svg PUBLIC "-//W3C//DTD SVG 1.1//EN" "http://www.w3.org/Graphics/SVG/1.1/DTD/svg11.dtd">
<svg version="1.1" id="Layer_1" xmlns="http://www.w3.org/2000/svg" xmlns:xlink="http://www.w3.org/1999/xlink" x="0px" y="0px"
	 width="400px" height="400px" viewBox="0 0 400 400" enable-background="new 0 0 400 400" xml:space="preserve">
<title>license paw print</title>
<g>
	<title>Layer 1</title>
	<g id="layer1" transform="rotate(20, 199.08, 194.99)">
		<g id="text11467">
			<path id="path5127" d="M167.047,44.991l-5.612,40.608l-5.12,6.189l-0.947,0.86l-2.297,2.647l-2.121,3.051l-1.964,3.402
				l-1.806,3.752l-1.578,4.05l-1.403,4.348l-1.174,4.594l-0.912,4.857l-0.702,5.05l-0.403,5.26l-0.158,5.383l0.158,5.365l0.403,5.26
				l0.702,5.05l0.912,4.857l1.174,4.594l1.403,4.348l1.578,4.051l1.806,3.769l1.964,3.384l2.121,3.051l2.297,2.648l2.42,2.209
				l2.56,1.789l1.297,0.701l1.351,0.596l1.385,0.474l1.367,0.333l1.403,0.193l1.438,0.07l1.42-0.07l1.403-0.193l1.385-0.333
				l1.368-0.474l1.35-0.596l1.315-0.701l2.542-1.789l2.42-2.209l2.297-2.648l2.121-3.051l1.999-3.384l1.771-3.769l1.596-4.051
				l1.402-4.348l1.158-4.594l0.93-4.858l0.683-5.049l0.333-4.208l-0.438,0.07c0.741-15.044-1-27.985-7.47-43.448l-2.823-4.98
				l-1.262-1.806l-2.297-2.648l-2.42-2.209l-2.541-1.788l-1.315-0.702l-1.018-0.455l-2.208-4.594L167.047,44.991z M234.376,48.059
				l-8.47,42.958l-1.298,0.701l-2.559,1.789l-2.421,2.209l-2.296,2.648l-1.245,1.805l-2.84,4.98
				c-4.877,13.953-7.845,28.329-7.47,43.449l-0.438-0.07l0.332,4.208l0.684,5.05l0.929,4.857l1.175,4.593l1.403,4.349l1.578,4.05
				l1.788,3.77l1.981,3.384l2.122,3.051l2.298,2.647l2.419,2.21l2.559,1.788l1.299,0.702l1.35,0.597l1.367,0.473l1.385,0.333
				l1.404,0.194l1.42,0.069l1.438-0.07l1.403-0.192l1.384-0.333l1.368-0.473l1.351-0.597l1.298-0.701l2.56-1.788l2.418-2.209
				l2.297-2.647l2.122-3.052l1.964-3.384l1.806-3.77l1.578-4.05l1.402-4.349l1.175-4.593l0.93-4.857l0.683-5.05l0.404-5.26
				l0.158-5.383l-0.157-5.366l-0.404-5.26l-0.683-5.049l-0.93-4.857l-1.175-4.594l-1.401-4.349l-1.578-4.05l-1.806-3.752
				l-1.965-3.402l-2.121-3.05l-2.297-2.648l-0.947-0.859l-5.119-6.19L234.376,48.059L234.376,48.059z M94.456,122.963l-0.07,0.036
				l-0.087,0l-0.07,0.017l-0.07,0l-0.158,0l-0.158,0l-0.158,0.035l-0.14,0.018l-0.316,0.052l-0.07,0.018l-0.105,0.052l-0.158,0.053
				l-0.14,0.035l-0.158,0.053l-0.157,0.07l-0.158,0.087l-0.281,0.123l-0.14,0.105l-0.14,0.106l-0.281,0.157l-0.578,0.421
				l-0.315,0.281l-0.28,0.263l-0.526,0.543l-1.052,1.35l-1.017,1.614l-0.912,1.841l-0.876,2.086l-0.754,2.262l-0.719,2.472
				l-1.105,5.453l-0.702,6.067l-0.263,6.435l0.263,6.452l0.701,6.067l1.105,5.453l0.719,2.472l0.754,2.262l0.877,2.087l0.228,0.456
				l-0.035,0.245l-0.088,3.612l0.14,3.77l0.421,3.892l0.684,4.068l0.964,4.103l1.228,4.208l1.508,4.243l1.788,4.226l2.016,4.138
				l2.192,3.91l2.314,3.665l2.473,3.401l2.56,3.139l2.647,2.84l2.735,2.543l2.753,2.245l2.771,1.875l2.787,1.526l2.753,1.192
				l2.735,0.789l2.666,0.42l2.612-0.034l1.245-0.158l1.227-0.264l1.193-0.385l1.174-0.491l1.123-0.596l1.052-0.702l0.999-0.807
				l0.929-0.893l1.666-2.018l1.42-2.367l1.158-2.648l0.911-2.945l0.649-3.191l0.368-3.42l0.106-3.612l-0.141-3.77l-0.421-3.892
				l-0.683-4.068l-0.965-4.103l-1.227-4.208l-1.508-4.244l-1.788-4.225l-2.017-4.138l-2.157-3.91l-2.349-3.665l-2.455-3.401
				l-2.577-3.139l-2.63-2.84l-2.718-2.543l-2.753-2.209l-2.788-1.911l-2.788-1.526l-2.77-1.192l-2.735-0.789l-2.683-0.421
				l-2.577,0.035l-1.263,0.158l-1.227,0.263l-0.877,0.281l-0.017-0.088l-1.192-3.296l-1.105-3.455l-0.911-3.612l-0.754-3.769
				l-0.579-3.805l-0.333-3.735l-0.158-3.612l0-3.524l0.228-3.367l0.421-3.208l0.105-0.491l0.088-0.491l0.158-0.929l-0.018,0
				l-0.035-0.036l-0.018,0l-0.035,0h-0.07L94.456,122.963L94.456,122.963z M303.529,123.016l-0.035,0.035l-0.018,0l0.158,0.929
				l0.088,0.491l0.105,0.491l0.421,3.209l0.227,3.367l0,3.524l-0.157,3.612l-0.332,3.735l-0.58,3.804l-0.754,3.77l-0.911,3.612
				l-1.104,3.454l-1.193,3.297l-0.017,0.087l-0.876-0.281l-1.227-0.263l-1.262-0.158l-2.578-0.035l-2.684,0.421l-2.735,0.789
				l-2.769,1.192l-2.789,1.525l-2.788,1.912l-2.752,2.209l-2.718,2.542l-2.63,2.841l-2.577,3.138l-2.454,3.402l-2.349,3.664
				l-2.157,3.91l-2.016,4.137l-1.789,4.226l-1.508,4.243l-1.227,4.208l-0.964,4.104l-0.684,4.068l-0.421,3.892l-0.14,3.769
				l0.105,3.612l0.368,3.42l0.65,3.191l0.91,2.946l1.159,2.647l1.419,2.368l1.666,2.014l0.929,0.896l1,0.806l1.051,0.701
				l1.124,0.597l1.174,0.49l1.192,0.386l1.227,0.262l1.245,0.158l2.613,0.035l2.664-0.42l2.735-0.789l2.753-1.193l2.788-1.525
				l2.771-1.876l2.752-2.245l2.735-2.542l2.649-2.842l2.56-3.137l2.472-3.402l2.314-3.665l2.193-3.909l2.016-4.138l1.789-4.226
				l1.507-4.242l1.227-4.209l0.965-4.103l0.683-4.068l0.421-3.894l0.14-3.768l-0.088-3.613l-0.034-0.245l0.228-0.456l0.875-2.086
				l0.755-2.262l0.718-2.472l1.105-5.453l0.7-6.067l0.263-6.452l-0.264-6.435l-0.7-6.067l-1.105-5.453l-0.718-2.472l-0.755-2.262
				l-0.876-2.087l-0.912-1.841l-1.017-1.613l-1.052-1.35l-0.526-0.544l-0.281-0.263l-0.315-0.28l-0.579-0.421l-0.28-0.158
				l-0.14-0.105l-0.141-0.105l-0.28-0.123l-0.158-0.088l-0.158-0.07l-0.158-0.052l-0.139-0.035l-0.159-0.053l-0.104-0.053
				l-0.07-0.017l-0.317-0.053l-0.14-0.017l-0.158-0.035l-0.158,0l-0.158,0l-0.07,0l-0.07-0.018h-0.088l-0.07-0.035l-0.052,0
				l-0.071,0l-0.035,0l-0.017,0L303.529,123.016L303.529,123.016z M197.818,211.633l-3.682,0.21l-3.56,0.562l-3.454,0.945
				l-3.314,1.299l-3.138,1.613l-2.981,1.894c-9.714,10.549-12.701,21.099-17.516,31.648l-2.069,2.928l-2.332,2.701l-2.578,2.472
				l-2.753,2.209l-2.98,1.894l-3.139,1.613c-11.441,2.875-18.632,7.169-24.863,11.783l-2.577,2.473l-2.332,2.7l-2.052,2.946
				l-2.77,5.295l-0.561,1.21l-1.21,3.506l-0.877,3.664l-0.561,3.786l-0.175,3.911l0.175,3.893l0.561,3.805l0.877,3.664l1.21,3.507
				l1.508,3.332l1.823,3.173l2.052,2.928l2.332,2.701l2.577,2.472l2.753,2.209l2.981,1.911l3.138,1.595l3.314,1.315
				c6.521,3.33,12.169,3.394,19.27,0.614l0.035-0.052l2.069-0.562l3.314-1.314l3.138-1.596l2.998-1.911
				c18.088-11.653,38.071-18.687,69.224,1.508l2.981,1.911c9.934,6.629,20.398,6.121,31.157,1.613l3.121-1.613l3-1.911l2.752-2.21
				l2.578-2.472l2.314-2.7l2.069-2.927l1.806-3.174l1.508-3.331l1.228-3.507l0.859-3.664l0.561-3.804l0.193-3.893l-0.194-3.91
				l-0.56-3.787l-0.859-3.665l-1.228-3.506l-1.508-3.332l-1.806-3.173l-2.069-2.944l-2.314-2.702l-2.577-2.473l-2.753-2.208
				l-2.999-1.894l-11.343-3.296l-3.315-1.315l-3.139-1.614l-2.98-1.894l-2.753-2.209l-2.577-2.472l-2.332-2.701l-2.053-2.945
				l-1.822-3.156l-8.978-22.723l-2.069-2.946l-2.314-2.7l-2.579-2.473l-2.753-2.209l-2.98-1.892l-3.139-1.614l-3.315-1.298
				l-3.453-0.946l-3.577-0.561L197.818,211.633L197.818,211.633z"/>
		</g>
	</g>
</g>
</svg>
