<?xml version="1.0" encoding="utf-8"?>
<!-- Generator: Adobe Illustrator 16.0.0, SVG Export Plug-In . SVG Version: 6.00 Build 0)  -->
<!DOCTYPE svg PUBLIC "-//W3C//DTD SVG 1.1//EN" "http://www.w3.org/Graphics/SVG/1.1/DTD/svg11.dtd">
<svg version="1.1" id="Layer_1" xmlns="http://www.w3.org/2000/svg" xmlns:xlink="http://www.w3.org/1999/xlink" x="0px" y="0px"
	 width="400px" height="400px" viewBox="0 0 400 400" enable-background="new 0 0 400 400" xml:space="preserve">
<title>license paw print</title>
<g>
	<title>Layer 1</title>
	<g id="layer1" transform="rotate(20, 199.08, 194.99)">
		<g id="text11467">
			<path id="path5127" d="M159.479,2.655l-7.156,51.78l-6.528,7.892l-1.207,1.097l-2.929,3.375l-2.705,3.89l-2.505,4.339
				l-2.302,4.784l-2.013,5.165l-1.789,5.543l-1.497,5.858l-1.163,6.193l-0.895,6.44l-0.514,6.707l-0.202,6.864l0.201,6.841
				l0.514,6.707l0.895,6.44l1.163,6.193l1.497,5.858l1.789,5.545l2.012,5.165l2.303,4.806l2.504,4.315l2.705,3.89l2.929,3.377
				l3.086,2.816l3.264,2.281l1.654,0.894l1.723,0.76l1.766,0.605l1.743,0.424l1.788,0.247l1.834,0.089l1.811-0.09l1.789-0.246
				l1.766-0.425l1.744-0.604l1.721-0.76l1.677-0.894l3.241-2.281l3.086-2.817l2.929-3.377l2.705-3.89l2.549-4.315l2.258-4.807
				l2.036-5.166l1.787-5.544l1.476-5.857l1.185-6.195l0.872-6.438l0.425-5.366l-0.559,0.09c0.945-19.184-1.275-35.685-9.525-55.402
				l-3.6-6.35l-1.608-2.303l-2.929-3.377l-3.087-2.816l-3.24-2.28l-1.678-0.895l-1.297-0.581l-2.815-5.858L159.479,2.655z
				 M245.332,6.568l-10.799,54.776l-1.656,0.894l-3.262,2.281l-3.088,2.817l-2.928,3.376l-1.587,2.302l-3.622,6.351
				c-6.218,17.791-10.004,36.123-9.525,55.403l-0.559-0.09l0.423,5.367l0.873,6.439l1.184,6.192l1.499,5.857l1.788,5.546
				l2.013,5.164l2.279,4.807l2.527,4.315l2.705,3.891l2.931,3.375l3.083,2.818l3.264,2.28l1.656,0.895l1.723,0.762l1.742,0.601
				l1.766,0.426l1.791,0.246l1.81,0.088l1.834-0.09l1.789-0.244l1.766-0.425l1.744-0.602l1.723-0.761l1.655-0.893l3.264-2.28
				l3.084-2.817l2.93-3.374l2.706-3.893l2.504-4.315l2.302-4.807l2.012-5.165l1.788-5.546l1.497-5.857l1.186-6.193l0.872-6.439
				l0.516-6.708l0.2-6.864l-0.199-6.842l-0.517-6.707l-0.87-6.438l-1.186-6.193l-1.499-5.858l-1.786-5.546l-2.013-5.164
				l-2.303-4.784l-2.504-4.339l-2.706-3.888l-2.929-3.377l-1.207-1.096l-6.527-7.893L245.332,6.568L245.332,6.568z M66.916,102.079
				l-0.089,0.046l-0.112,0l-0.088,0.022l-0.09,0l-0.201-0.001l-0.202,0l-0.202,0.044l-0.179,0.023l-0.403,0.066l-0.089,0.023
				l-0.134,0.066l-0.201,0.068l-0.179,0.044l-0.201,0.067l-0.2,0.09l-0.202,0.111l-0.358,0.157l-0.178,0.134l-0.179,0.135
				l-0.358,0.2l-0.737,0.537l-0.402,0.358l-0.357,0.335l-0.671,0.693l-1.341,1.721l-1.298,2.058l-1.162,2.348l-1.117,2.66
				l-0.962,2.885l-0.917,3.152l-1.409,6.953l-0.895,7.737l-0.335,8.205l0.336,8.227l0.894,7.736l1.409,6.953l0.916,3.153
				l0.961,2.884l1.118,2.662l0.291,0.581l-0.044,0.313l-0.113,4.605l0.178,4.807l0.538,4.963l0.872,5.188l1.229,5.232l1.566,5.365
				l1.923,5.41l2.28,5.389l2.571,5.276l2.795,4.986l2.951,4.673l3.153,4.337l3.264,4.002l3.376,3.622l3.487,3.241l3.511,2.863
				l3.533,2.392l3.554,1.945l3.511,1.521l3.487,1.005l3.399,0.536l3.331-0.043l1.587-0.201l1.565-0.336l1.521-0.49l1.497-0.627
				l1.432-0.76l1.341-0.895l1.273-1.03l1.185-1.139l2.124-2.572l1.811-3.018l1.476-3.376l1.162-3.756l0.828-4.069l0.469-4.36
				l0.135-4.606l-0.18-4.808l-0.537-4.964l-0.871-5.187l-1.23-5.232l-1.565-5.366l-1.923-5.411l-2.28-5.388l-2.571-5.276
				l-2.751-4.986l-2.995-4.673l-3.131-4.337l-3.286-4.003l-3.353-3.621l-3.466-3.243l-3.51-2.816l-3.555-2.437l-3.556-1.946
				l-3.532-1.52l-3.488-1.005l-3.421-0.537l-3.286,0.045l-1.611,0.201l-1.564,0.335l-1.119,0.358l-0.021-0.112l-1.52-4.203
				l-1.409-4.406l-1.162-4.606l-0.961-4.806l-0.738-4.852l-0.424-4.762l-0.202-4.606l0-4.494l0.29-4.293l0.537-4.091l0.134-0.626
				l0.113-0.626l0.201-1.184l-0.023-0.001l-0.044-0.046l-0.023,0l-0.045,0l-0.089,0L66.916,102.079L66.916,102.079z
				 M333.511,102.147l-0.045,0.045l-0.022,0l0.201,1.185l0.112,0.626l0.133,0.626l0.538,4.092l0.289,4.294l0.001,4.493l-0.2,4.606
				l-0.423,4.762l-0.74,4.851l-0.962,4.807l-1.16,4.605l-1.409,4.405l-1.521,4.204l-0.022,0.111l-1.119-0.358l-1.564-0.336
				l-1.609-0.201l-3.288-0.045l-3.421,0.537l-3.488,1.007l-3.53,1.519l-3.556,1.944l-3.556,2.439l-3.509,2.817l-3.464,3.242
				l-3.354,3.622l-3.287,4.001l-3.128,4.337l-2.995,4.673l-2.752,4.985l-2.57,5.275l-2.28,5.388l-1.923,5.411l-1.565,5.366
				l-1.23,5.233l-0.871,5.188l-0.538,4.962l-0.18,4.807l0.134,4.606l0.47,4.361l0.829,4.068l1.16,3.757l1.478,3.377l1.809,3.018
				l2.124,2.568l1.185,1.143l1.277,1.028l1.339,0.894l1.434,0.761l1.496,0.625l1.521,0.493l1.564,0.334l1.587,0.202l3.332,0.045
				l3.397-0.535l3.488-1.008l3.511-1.522l3.555-1.942l3.533-2.393l3.509-2.863l3.486-3.241l3.38-3.624l3.263-4l3.153-4.338
				l2.952-4.673l2.794-4.985l2.571-5.277l2.281-5.389l1.923-5.41l1.565-5.367l1.231-5.232l0.871-5.186l0.536-4.967l0.178-4.804
				l-0.112-4.608l-0.044-0.311l0.291-0.582l1.117-2.66l0.963-2.884l0.914-3.153l1.409-6.953l0.893-7.735l0.336-8.229l-0.337-8.205
				l-0.893-7.736l-1.408-6.954l-0.916-3.152l-0.962-2.885l-1.117-2.661l-1.164-2.346l-1.297-2.058l-1.341-1.722l-0.671-0.693
				l-0.358-0.335l-0.402-0.358l-0.738-0.536l-0.357-0.202l-0.178-0.134l-0.181-0.134l-0.355-0.157l-0.203-0.111l-0.202-0.09
				l-0.201-0.067l-0.177-0.044l-0.203-0.068l-0.133-0.067l-0.09-0.021l-0.404-0.068l-0.179-0.022l-0.202-0.044l-0.201-0.001
				l-0.201,0.001l-0.089,0l-0.089-0.023l-0.112,0l-0.089-0.045l-0.066,0l-0.089,0l-0.045,0l-0.022,0L333.511,102.147
				L333.511,102.147z M198.715,215.145l-4.695,0.268l-4.539,0.717l-4.405,1.204l-4.225,1.656l-4.001,2.057l-3.801,2.417
				c-12.387,13.45-16.196,26.903-22.335,40.354l-2.638,3.734l-2.974,3.444l-3.288,3.152l-3.51,2.817l-3.8,2.415l-4.002,2.056
				c-14.589,3.668-23.758,9.143-31.704,15.025l-3.285,3.155l-2.974,3.441l-2.616,3.759l-3.532,6.751l-0.715,1.544l-1.543,4.47
				l-1.119,4.672l-0.716,4.826l-0.223,4.987l0.223,4.964l0.716,4.852l1.118,4.672l1.543,4.473l1.924,4.25l2.324,4.045l2.616,3.733
				l2.974,3.445l3.286,3.151l3.511,2.817l3.801,2.437l4.002,2.033l4.226,1.676c8.315,4.246,15.517,4.329,24.572,0.784l0.043-0.067
				l2.639-0.716l4.226-1.675l4.001-2.035l3.822-2.437c23.065-14.859,48.546-23.828,88.27,1.923l3.801,2.437
				c12.668,8.453,26.01,7.804,39.729,2.058l3.979-2.058l3.825-2.437l3.51-2.817l3.287-3.153l2.952-3.443l2.638-3.733l2.302-4.047
				l1.924-4.247l1.565-4.473l1.097-4.672l0.714-4.85l0.246-4.964l-0.246-4.985l-0.716-4.83l-1.095-4.673l-1.567-4.47l-1.921-4.248
				l-2.303-4.047l-2.639-3.755l-2.95-3.445l-3.286-3.153l-3.511-2.816l-3.824-2.415l-14.462-4.204l-4.228-1.675l-4.002-2.058
				l-3.801-2.415l-3.509-2.818l-3.286-3.152l-2.972-3.444l-2.618-3.755l-2.323-4.025l-11.449-28.973l-2.637-3.756l-2.952-3.444
				l-3.288-3.152l-3.51-2.818l-3.802-2.411l-4.001-2.058l-4.228-1.655l-4.402-1.207l-4.561-0.715L198.715,215.145L198.715,215.145z"
				/>
		</g>
	</g>
</g>
</svg>
